<svg width="28" height="32" viewBox="0 0 28 32" fill="none" xmlns="http://www.w3.org/2000/svg">
<path d="M26.307 29.8732C25.8247 29.4969 23.6296 28.0596 22.5617 27.1151C22.1451 26.7465 22.4392 26.3229 21.98 25.8813C21.3945 25.3169 20.7445 24.7051 20.1035 24.0524C19.4303 23.3664 18.7996 22.6087 18.187 21.8242C17.6298 21.0537 15.8925 18.6758 14.479 17.1003C12.9623 15.4096 10.0978 13.3414 9.31111 11.4421C9.26468 11.3166 9.22083 11.1887 9.18214 11.0555C9.00674 10.4476 8.92033 9.76418 8.94612 8.97451C8.97062 8.20788 9.20019 7.43101 10.0566 6.13836C10.9903 4.72797 10.8227 4.10724 10.4989 4.05733C10.1804 4.00869 9.83474 4.02277 10.1817 2.55095C10.4809 1.27749 10.272 0.745077 10.0785 0.426395C9.89535 0.12691 9.67094 -0.0317916 9.49425 0.00532405C9.09057 0.0897941 8.78619 1.02792 8.39154 1.27493C8.28965 1.33893 7.77376 1.62561 7.87565 0.435354C7.90016 0.153787 7.70541 0.0577979 7.43457 0.224178C7.0296 0.473749 6.45567 1.12135 6.14356 2.33721C6.12421 2.41272 6.04941 2.43576 6.01459 2.33721C5.963 2.19003 5.94365 1.90718 6.05973 1.4298C6.16677 0.985689 6.3512 0.629891 6.14614 0.581256C5.8869 0.518544 5.51933 1.05736 5.2356 1.66785C5.19304 1.75872 5.18014 1.78943 5.14918 1.86367C5.11823 1.93918 5.03053 1.98525 5.02537 1.82911C5.0215 1.72032 5.04601 1.54882 5.10533 1.34277C5.13113 1.2519 5.08212 1.21606 5.04601 1.20582C4.96089 1.18407 4.85642 1.22886 4.72616 1.32485C4.43468 1.53858 4.15094 1.9315 3.94846 2.4524V2.44984C3.92524 2.50743 3.9059 2.56502 3.88784 2.62262C3.88397 2.63542 3.87881 2.64821 3.87494 2.66101C3.86849 2.67893 3.86333 2.69813 3.85689 2.71605C3.84786 2.74548 3.84012 2.77748 3.83109 2.80692C3.81948 2.84659 3.80788 2.88627 3.79756 2.92722C3.79369 2.94258 3.78982 2.95794 3.78724 2.9733C3.7679 3.05009 3.75113 3.12816 3.73565 3.21007C3.71889 3.29966 3.7047 3.38797 3.69309 3.475C3.69309 3.4814 3.6918 3.48907 3.69051 3.49547C3.69051 3.50059 3.69051 3.50571 3.68922 3.51083C3.65827 3.754 3.64795 3.99206 3.6544 4.21987V4.22243C3.6544 4.26082 3.65569 4.3005 3.65827 4.33889C3.66472 4.46432 3.35776 4.49888 3.42483 4.783C3.59378 5.50228 3.85947 6.23307 4.00391 6.60807C4.05808 6.74757 3.9807 6.90115 3.83754 6.94339C3.16173 7.13921 1.35999 7.70362 0.0934845 8.46385C0.0199705 8.50865 -0.0367772 8.63023 0.0289985 8.7275C0.0909051 8.81837 0.239223 8.80685 0.308868 8.78381C1.75851 8.30643 3.82593 7.63451 4.82547 8.35122C5.55803 8.87596 5.63154 10.1302 5.17369 11.4843C5.0215 11.986 4.84868 12.4352 4.69004 12.8934L4.6836 12.896C2.55943 18.4659 6.47502 21.032 10.0772 24.3417C10.3416 24.5848 10.8897 25.1966 11.3785 25.9095C11.7306 26.424 12.0892 26.9961 12.0531 27.5579C12.0221 28.0302 11.9473 28.5984 11.7822 29.3331C11.5797 30.2315 11.3618 29.7887 9.93275 29.4303C9.48522 29.3177 9.46459 29.3587 9.17956 29.9615C8.88421 30.5861 8.85971 30.6564 8.93838 30.6974C9.00287 30.7307 11.6803 30.7128 11.9795 30.7691C12.026 30.778 12.0711 30.7921 12.1137 30.8126C12.4387 30.9649 13.9128 31.6637 14.3617 31.9632C14.4571 32.0272 14.6054 32.0041 14.6622 31.9222C14.7292 31.8262 14.6789 31.7034 14.5938 31.6509C13.9309 31.2439 12.5909 30.2405 12.5573 29.9321C12.5444 29.8143 12.6515 29.3625 12.7057 29.017C12.9468 27.4709 12.9842 26.8911 13.6214 26.5955C14.212 26.3216 15.5946 27.023 16.6806 27.2853C16.7296 27.2968 16.7605 27.3442 16.7489 27.3928C16.7141 27.5464 16.6251 27.9099 16.442 28.5268C16.4175 28.6112 16.3504 28.8096 16.1724 28.8621C15.9416 28.9312 15.0323 28.5959 14.4223 28.4513C14.1656 28.3898 14.0908 28.226 13.5104 29.4367C13.4692 29.5225 13.4846 29.5545 13.5117 29.5763C13.5478 29.6044 16.0976 29.7286 16.4587 29.7977C16.5245 29.8105 16.5877 29.8309 16.6483 29.8604C17.6066 30.3237 18.3765 30.7422 18.8924 31.0225C19.1697 31.1735 19.26 31.2413 19.3619 31.1402C19.4934 31.0097 19.3503 30.9047 19.2536 30.81C19.1994 30.755 18.619 30.357 18.0644 29.964C17.5344 29.5865 17.0236 29.351 17.0391 29.1565C17.0468 29.0477 17.1113 28.7456 17.1371 28.6496C17.1552 28.5818 17.3448 27.8753 17.4144 27.6181C17.4286 27.5682 17.4815 27.5387 17.5318 27.5554C20.2634 28.473 21.103 30.2226 23.1833 31.3079C25.6828 32.6121 28.4467 31.537 26.3161 29.877L26.307 29.8732Z" fill="#EA0029"/>
</svg>
